<svg id="canvas" height="auto" xmlns="http://www.w3.org/2000/svg" version="1.1" xmlns:xlink="http://www.w3.org/1999/xlink" viewBox="0 0 660 420" width="auto" style="width: auto; height: auto;"><rect width="660" height="420" fill="transparent"/><mask id="mask" mask-type="alpha" maskUnits="userSpaceOnUse"><rect transform="translate(0, 0)" width="660" height="420" fill="white"/></mask><g name="doubleStripes" mask="url(#mask)"><rect transform="translate(0, 60) rotate(90)" width="60" height="120" fill="none"/><path transform="translate(0, 60) rotate(90)" fill="#78716c" d="M48.0004 120.462H52.0004L52.0004 0.461672L48.0004 0.461672L48.0004 120.462Z"/><path transform="translate(0, 60) rotate(90)" fill="#78716c" d="M38.0004 0.461671L38.0004 120.462H42.0004L42.0004 0.461671L38.0004 0.461671Z"/><path transform="translate(0, 60) rotate(90)" fill="#78716c" d="M28.0004 0.461671L32.0004 0.461671L32.0004 120.462H28.0004L28.0004 0.461671Z"/><path transform="translate(0, 60) rotate(90)" fill="#78716c" d="M18.0004 0.46167L18.0004 120.462H22.0004L22.0004 0.461671L18.0004 0.46167Z"/><path transform="translate(0, 60) rotate(90)" fill="#78716c" d="M8.00037 0.46167L8.00037 120.462H12.0004L12.0004 0.46167L8.00037 0.46167Z"/></g><g name="doubleStripes" mask="url(#mask)"><rect transform="translate(0, 300) rotate(0)" width="60" height="120" fill="none"/><path transform="translate(0, 300) rotate(0)" fill="#f59e0b" d="M48.0004 120.462H52.0004L52.0004 0.461672L48.0004 0.461672L48.0004 120.462Z"/><path transform="translate(0, 300) rotate(0)" fill="#f59e0b" d="M38.0004 0.461671L38.0004 120.462H42.0004L42.0004 0.461671L38.0004 0.461671Z"/><path transform="translate(0, 300) rotate(0)" fill="#f59e0b" d="M28.0004 0.461671L32.0004 0.461671L32.0004 120.462H28.0004L28.0004 0.461671Z"/><path transform="translate(0, 300) rotate(0)" fill="#f59e0b" d="M18.0004 0.46167L18.0004 120.462H22.0004L22.0004 0.461671L18.0004 0.46167Z"/><path transform="translate(0, 300) rotate(0)" fill="#f59e0b" d="M8.00037 0.46167L8.00037 120.462H12.0004L12.0004 0.46167L8.00037 0.46167Z"/></g><g name="doubleStripes" mask="url(#mask)"><rect transform="translate(0, 360) rotate(0)" width="60" height="120" fill="none"/><path transform="translate(0, 360) rotate(0)" fill="#f59e0b" d="M48.0004 120.462H52.0004L52.0004 0.461672L48.0004 0.461672L48.0004 120.462Z"/><path transform="translate(0, 360) rotate(0)" fill="#f59e0b" d="M38.0004 0.461671L38.0004 120.462H42.0004L42.0004 0.461671L38.0004 0.461671Z"/><path transform="translate(0, 360) rotate(0)" fill="#f59e0b" d="M28.0004 0.461671L32.0004 0.461671L32.0004 120.462H28.0004L28.0004 0.461671Z"/><path transform="translate(0, 360) rotate(0)" fill="#f59e0b" d="M18.0004 0.46167L18.0004 120.462H22.0004L22.0004 0.461671L18.0004 0.46167Z"/><path transform="translate(0, 360) rotate(0)" fill="#f59e0b" d="M8.00037 0.46167L8.00037 120.462H12.0004L12.0004 0.46167L8.00037 0.46167Z"/></g><g name="doubleStripes" mask="url(#mask)"><rect transform="translate(60, 60) rotate(0)" width="60" height="120" fill="none"/><path transform="translate(60, 60) rotate(0)" fill="#d6d3d1" d="M48.0004 120.462H52.0004L52.0004 0.461672L48.0004 0.461672L48.0004 120.462Z"/><path transform="translate(60, 60) rotate(0)" fill="#d6d3d1" d="M38.0004 0.461671L38.0004 120.462H42.0004L42.0004 0.461671L38.0004 0.461671Z"/><path transform="translate(60, 60) rotate(0)" fill="#d6d3d1" d="M28.0004 0.461671L32.0004 0.461671L32.0004 120.462H28.0004L28.0004 0.461671Z"/><path transform="translate(60, 60) rotate(0)" fill="#d6d3d1" d="M18.0004 0.46167L18.0004 120.462H22.0004L22.0004 0.461671L18.0004 0.46167Z"/><path transform="translate(60, 60) rotate(0)" fill="#d6d3d1" d="M8.00037 0.46167L8.00037 120.462H12.0004L12.0004 0.46167L8.00037 0.46167Z"/></g><g name="doubleStripes" mask="url(#mask)"><rect transform="translate(60, 180) rotate(90)" width="60" height="120" fill="none"/><path transform="translate(60, 180) rotate(90)" fill="#d6d3d1" d="M48.0004 120.462H52.0004L52.0004 0.461672L48.0004 0.461672L48.0004 120.462Z"/><path transform="translate(60, 180) rotate(90)" fill="#d6d3d1" d="M38.0004 0.461671L38.0004 120.462H42.0004L42.0004 0.461671L38.0004 0.461671Z"/><path transform="translate(60, 180) rotate(90)" fill="#d6d3d1" d="M28.0004 0.461671L32.0004 0.461671L32.0004 120.462H28.0004L28.0004 0.461671Z"/><path transform="translate(60, 180) rotate(90)" fill="#d6d3d1" d="M18.0004 0.46167L18.0004 120.462H22.0004L22.0004 0.461671L18.0004 0.46167Z"/><path transform="translate(60, 180) rotate(90)" fill="#d6d3d1" d="M8.00037 0.46167L8.00037 120.462H12.0004L12.0004 0.46167L8.00037 0.46167Z"/></g><g name="doubleStripes" mask="url(#mask)"><rect transform="translate(60, 240) rotate(90)" width="60" height="120" fill="none"/><path transform="translate(60, 240) rotate(90)" fill="#78716c" d="M48.0004 120.462H52.0004L52.0004 0.461672L48.0004 0.461672L48.0004 120.462Z"/><path transform="translate(60, 240) rotate(90)" fill="#78716c" d="M38.0004 0.461671L38.0004 120.462H42.0004L42.0004 0.461671L38.0004 0.461671Z"/><path transform="translate(60, 240) rotate(90)" fill="#78716c" d="M28.0004 0.461671L32.0004 0.461671L32.0004 120.462H28.0004L28.0004 0.461671Z"/><path transform="translate(60, 240) rotate(90)" fill="#78716c" d="M18.0004 0.46167L18.0004 120.462H22.0004L22.0004 0.461671L18.0004 0.46167Z"/><path transform="translate(60, 240) rotate(90)" fill="#78716c" d="M8.00037 0.46167L8.00037 120.462H12.0004L12.0004 0.46167L8.00037 0.46167Z"/></g><g name="doubleStripes" mask="url(#mask)"><rect transform="translate(60, 300) rotate(90)" width="60" height="120" fill="none"/><path transform="translate(60, 300) rotate(90)" fill="#d6d3d1" d="M48.0004 120.462H52.0004L52.0004 0.461672L48.0004 0.461672L48.0004 120.462Z"/><path transform="translate(60, 300) rotate(90)" fill="#d6d3d1" d="M38.0004 0.461671L38.0004 120.462H42.0004L42.0004 0.461671L38.0004 0.461671Z"/><path transform="translate(60, 300) rotate(90)" fill="#d6d3d1" d="M28.0004 0.461671L32.0004 0.461671L32.0004 120.462H28.0004L28.0004 0.461671Z"/><path transform="translate(60, 300) rotate(90)" fill="#d6d3d1" d="M18.0004 0.46167L18.0004 120.462H22.0004L22.0004 0.461671L18.0004 0.46167Z"/><path transform="translate(60, 300) rotate(90)" fill="#d6d3d1" d="M8.00037 0.46167L8.00037 120.462H12.0004L12.0004 0.46167L8.00037 0.46167Z"/></g><g name="doubleStripes" mask="url(#mask)"><rect transform="translate(60, 360) rotate(0)" width="60" height="120" fill="none"/><path transform="translate(60, 360) rotate(0)" fill="#78716c" d="M48.0004 120.462H52.0004L52.0004 0.461672L48.0004 0.461672L48.0004 120.462Z"/><path transform="translate(60, 360) rotate(0)" fill="#78716c" d="M38.0004 0.461671L38.0004 120.462H42.0004L42.0004 0.461671L38.0004 0.461671Z"/><path transform="translate(60, 360) rotate(0)" fill="#78716c" d="M28.0004 0.461671L32.0004 0.461671L32.0004 120.462H28.0004L28.0004 0.461671Z"/><path transform="translate(60, 360) rotate(0)" fill="#78716c" d="M18.0004 0.46167L18.0004 120.462H22.0004L22.0004 0.461671L18.0004 0.46167Z"/><path transform="translate(60, 360) rotate(0)" fill="#78716c" d="M8.00037 0.46167L8.00037 120.462H12.0004L12.0004 0.46167L8.00037 0.46167Z"/></g><g name="doubleStripes" mask="url(#mask)"><rect transform="translate(120, 60) rotate(90)" width="60" height="120" fill="none"/><path transform="translate(120, 60) rotate(90)" fill="#d6d3d1" d="M48.0004 120.462H52.0004L52.0004 0.461672L48.0004 0.461672L48.0004 120.462Z"/><path transform="translate(120, 60) rotate(90)" fill="#d6d3d1" d="M38.0004 0.461671L38.0004 120.462H42.0004L42.0004 0.461671L38.0004 0.461671Z"/><path transform="translate(120, 60) rotate(90)" fill="#d6d3d1" d="M28.0004 0.461671L32.0004 0.461671L32.0004 120.462H28.0004L28.0004 0.461671Z"/><path transform="translate(120, 60) rotate(90)" fill="#d6d3d1" d="M18.0004 0.46167L18.0004 120.462H22.0004L22.0004 0.461671L18.0004 0.46167Z"/><path transform="translate(120, 60) rotate(90)" fill="#d6d3d1" d="M8.00037 0.46167L8.00037 120.462H12.0004L12.0004 0.46167L8.00037 0.46167Z"/></g><g name="doubleStripes" mask="url(#mask)"><rect transform="translate(180, 0) rotate(0)" width="60" height="120" fill="none"/><path transform="translate(180, 0) rotate(0)" fill="#d6d3d1" d="M48.0004 120.462H52.0004L52.0004 0.461672L48.0004 0.461672L48.0004 120.462Z"/><path transform="translate(180, 0) rotate(0)" fill="#d6d3d1" d="M38.0004 0.461671L38.0004 120.462H42.0004L42.0004 0.461671L38.0004 0.461671Z"/><path transform="translate(180, 0) rotate(0)" fill="#d6d3d1" d="M28.0004 0.461671L32.0004 0.461671L32.0004 120.462H28.0004L28.0004 0.461671Z"/><path transform="translate(180, 0) rotate(0)" fill="#d6d3d1" d="M18.0004 0.46167L18.0004 120.462H22.0004L22.0004 0.461671L18.0004 0.46167Z"/><path transform="translate(180, 0) rotate(0)" fill="#d6d3d1" d="M8.00037 0.46167L8.00037 120.462H12.0004L12.0004 0.46167L8.00037 0.46167Z"/></g><g name="doubleStripes" mask="url(#mask)"><rect transform="translate(180, 60) rotate(90)" width="60" height="120" fill="none"/><path transform="translate(180, 60) rotate(90)" fill="#f59e0b" d="M48.0004 120.462H52.0004L52.0004 0.461672L48.0004 0.461672L48.0004 120.462Z"/><path transform="translate(180, 60) rotate(90)" fill="#f59e0b" d="M38.0004 0.461671L38.0004 120.462H42.0004L42.0004 0.461671L38.0004 0.461671Z"/><path transform="translate(180, 60) rotate(90)" fill="#f59e0b" d="M28.0004 0.461671L32.0004 0.461671L32.0004 120.462H28.0004L28.0004 0.461671Z"/><path transform="translate(180, 60) rotate(90)" fill="#f59e0b" d="M18.0004 0.46167L18.0004 120.462H22.0004L22.0004 0.461671L18.0004 0.46167Z"/><path transform="translate(180, 60) rotate(90)" fill="#f59e0b" d="M8.00037 0.46167L8.00037 120.462H12.0004L12.0004 0.46167L8.00037 0.46167Z"/></g><g name="doubleStripes" mask="url(#mask)"><rect transform="translate(180, 240) rotate(90)" width="60" height="120" fill="none"/><path transform="translate(180, 240) rotate(90)" fill="#d6d3d1" d="M48.0004 120.462H52.0004L52.0004 0.461672L48.0004 0.461672L48.0004 120.462Z"/><path transform="translate(180, 240) rotate(90)" fill="#d6d3d1" d="M38.0004 0.461671L38.0004 120.462H42.0004L42.0004 0.461671L38.0004 0.461671Z"/><path transform="translate(180, 240) rotate(90)" fill="#d6d3d1" d="M28.0004 0.461671L32.0004 0.461671L32.0004 120.462H28.0004L28.0004 0.461671Z"/><path transform="translate(180, 240) rotate(90)" fill="#d6d3d1" d="M18.0004 0.46167L18.0004 120.462H22.0004L22.0004 0.461671L18.0004 0.46167Z"/><path transform="translate(180, 240) rotate(90)" fill="#d6d3d1" d="M8.00037 0.46167L8.00037 120.462H12.0004L12.0004 0.46167L8.00037 0.46167Z"/></g><g name="doubleStripes" mask="url(#mask)"><rect transform="translate(180, 300) rotate(0)" width="60" height="120" fill="none"/><path transform="translate(180, 300) rotate(0)" fill="#d6d3d1" d="M48.0004 120.462H52.0004L52.0004 0.461672L48.0004 0.461672L48.0004 120.462Z"/><path transform="translate(180, 300) rotate(0)" fill="#d6d3d1" d="M38.0004 0.461671L38.0004 120.462H42.0004L42.0004 0.461671L38.0004 0.461671Z"/><path transform="translate(180, 300) rotate(0)" fill="#d6d3d1" d="M28.0004 0.461671L32.0004 0.461671L32.0004 120.462H28.0004L28.0004 0.461671Z"/><path transform="translate(180, 300) rotate(0)" fill="#d6d3d1" d="M18.0004 0.46167L18.0004 120.462H22.0004L22.0004 0.461671L18.0004 0.46167Z"/><path transform="translate(180, 300) rotate(0)" fill="#d6d3d1" d="M8.00037 0.46167L8.00037 120.462H12.0004L12.0004 0.46167L8.00037 0.46167Z"/></g><g name="doubleStripes" mask="url(#mask)"><rect transform="translate(180, 360) rotate(90)" width="60" height="120" fill="none"/><path transform="translate(180, 360) rotate(90)" fill="#78716c" d="M48.0004 120.462H52.0004L52.0004 0.461672L48.0004 0.461672L48.0004 120.462Z"/><path transform="translate(180, 360) rotate(90)" fill="#78716c" d="M38.0004 0.461671L38.0004 120.462H42.0004L42.0004 0.461671L38.0004 0.461671Z"/><path transform="translate(180, 360) rotate(90)" fill="#78716c" d="M28.0004 0.461671L32.0004 0.461671L32.0004 120.462H28.0004L28.0004 0.461671Z"/><path transform="translate(180, 360) rotate(90)" fill="#78716c" d="M18.0004 0.46167L18.0004 120.462H22.0004L22.0004 0.461671L18.0004 0.46167Z"/><path transform="translate(180, 360) rotate(90)" fill="#78716c" d="M8.00037 0.46167L8.00037 120.462H12.0004L12.0004 0.46167L8.00037 0.46167Z"/></g><g name="doubleStripes" mask="url(#mask)"><rect transform="translate(240, 0) rotate(90)" width="60" height="120" fill="none"/><path transform="translate(240, 0) rotate(90)" fill="#78716c" d="M48.0004 120.462H52.0004L52.0004 0.461672L48.0004 0.461672L48.0004 120.462Z"/><path transform="translate(240, 0) rotate(90)" fill="#78716c" d="M38.0004 0.461671L38.0004 120.462H42.0004L42.0004 0.461671L38.0004 0.461671Z"/><path transform="translate(240, 0) rotate(90)" fill="#78716c" d="M28.0004 0.461671L32.0004 0.461671L32.0004 120.462H28.0004L28.0004 0.461671Z"/><path transform="translate(240, 0) rotate(90)" fill="#78716c" d="M18.0004 0.46167L18.0004 120.462H22.0004L22.0004 0.461671L18.0004 0.46167Z"/><path transform="translate(240, 0) rotate(90)" fill="#78716c" d="M8.00037 0.46167L8.00037 120.462H12.0004L12.0004 0.46167L8.00037 0.46167Z"/></g><g name="doubleStripes" mask="url(#mask)"><rect transform="translate(240, 60) rotate(90)" width="60" height="120" fill="none"/><path transform="translate(240, 60) rotate(90)" fill="#78716c" d="M48.0004 120.462H52.0004L52.0004 0.461672L48.0004 0.461672L48.0004 120.462Z"/><path transform="translate(240, 60) rotate(90)" fill="#78716c" d="M38.0004 0.461671L38.0004 120.462H42.0004L42.0004 0.461671L38.0004 0.461671Z"/><path transform="translate(240, 60) rotate(90)" fill="#78716c" d="M28.0004 0.461671L32.0004 0.461671L32.0004 120.462H28.0004L28.0004 0.461671Z"/><path transform="translate(240, 60) rotate(90)" fill="#78716c" d="M18.0004 0.46167L18.0004 120.462H22.0004L22.0004 0.461671L18.0004 0.46167Z"/><path transform="translate(240, 60) rotate(90)" fill="#78716c" d="M8.00037 0.46167L8.00037 120.462H12.0004L12.0004 0.46167L8.00037 0.46167Z"/></g><g name="doubleStripes" mask="url(#mask)"><rect transform="translate(240, 180) rotate(90)" width="60" height="120" fill="none"/><path transform="translate(240, 180) rotate(90)" fill="#d6d3d1" d="M48.0004 120.462H52.0004L52.0004 0.461672L48.0004 0.461672L48.0004 120.462Z"/><path transform="translate(240, 180) rotate(90)" fill="#d6d3d1" d="M38.0004 0.461671L38.0004 120.462H42.0004L42.0004 0.461671L38.0004 0.461671Z"/><path transform="translate(240, 180) rotate(90)" fill="#d6d3d1" d="M28.0004 0.461671L32.0004 0.461671L32.0004 120.462H28.0004L28.0004 0.461671Z"/><path transform="translate(240, 180) rotate(90)" fill="#d6d3d1" d="M18.0004 0.46167L18.0004 120.462H22.0004L22.0004 0.461671L18.0004 0.46167Z"/><path transform="translate(240, 180) rotate(90)" fill="#d6d3d1" d="M8.00037 0.46167L8.00037 120.462H12.0004L12.0004 0.46167L8.00037 0.46167Z"/></g><g name="doubleStripes" mask="url(#mask)"><rect transform="translate(240, 360) rotate(0)" width="60" height="120" fill="none"/><path transform="translate(240, 360) rotate(0)" fill="#d6d3d1" d="M48.0004 120.462H52.0004L52.0004 0.461672L48.0004 0.461672L48.0004 120.462Z"/><path transform="translate(240, 360) rotate(0)" fill="#d6d3d1" d="M38.0004 0.461671L38.0004 120.462H42.0004L42.0004 0.461671L38.0004 0.461671Z"/><path transform="translate(240, 360) rotate(0)" fill="#d6d3d1" d="M28.0004 0.461671L32.0004 0.461671L32.0004 120.462H28.0004L28.0004 0.461671Z"/><path transform="translate(240, 360) rotate(0)" fill="#d6d3d1" d="M18.0004 0.46167L18.0004 120.462H22.0004L22.0004 0.461671L18.0004 0.46167Z"/><path transform="translate(240, 360) rotate(0)" fill="#d6d3d1" d="M8.00037 0.46167L8.00037 120.462H12.0004L12.0004 0.46167L8.00037 0.46167Z"/></g><g name="doubleStripes" mask="url(#mask)"><rect transform="translate(300, 0) rotate(0)" width="60" height="120" fill="none"/><path transform="translate(300, 0) rotate(0)" fill="#78716c" d="M48.0004 120.462H52.0004L52.0004 0.461672L48.0004 0.461672L48.0004 120.462Z"/><path transform="translate(300, 0) rotate(0)" fill="#78716c" d="M38.0004 0.461671L38.0004 120.462H42.0004L42.0004 0.461671L38.0004 0.461671Z"/><path transform="translate(300, 0) rotate(0)" fill="#78716c" d="M28.0004 0.461671L32.0004 0.461671L32.0004 120.462H28.0004L28.0004 0.461671Z"/><path transform="translate(300, 0) rotate(0)" fill="#78716c" d="M18.0004 0.46167L18.0004 120.462H22.0004L22.0004 0.461671L18.0004 0.46167Z"/><path transform="translate(300, 0) rotate(0)" fill="#78716c" d="M8.00037 0.46167L8.00037 120.462H12.0004L12.0004 0.46167L8.00037 0.46167Z"/></g><g name="doubleStripes" mask="url(#mask)"><rect transform="translate(300, 120) rotate(90)" width="60" height="120" fill="none"/><path transform="translate(300, 120) rotate(90)" fill="#f59e0b" d="M48.0004 120.462H52.0004L52.0004 0.461672L48.0004 0.461672L48.0004 120.462Z"/><path transform="translate(300, 120) rotate(90)" fill="#f59e0b" d="M38.0004 0.461671L38.0004 120.462H42.0004L42.0004 0.461671L38.0004 0.461671Z"/><path transform="translate(300, 120) rotate(90)" fill="#f59e0b" d="M28.0004 0.461671L32.0004 0.461671L32.0004 120.462H28.0004L28.0004 0.461671Z"/><path transform="translate(300, 120) rotate(90)" fill="#f59e0b" d="M18.0004 0.46167L18.0004 120.462H22.0004L22.0004 0.461671L18.0004 0.46167Z"/><path transform="translate(300, 120) rotate(90)" fill="#f59e0b" d="M8.00037 0.46167L8.00037 120.462H12.0004L12.0004 0.46167L8.00037 0.46167Z"/></g><g name="doubleStripes" mask="url(#mask)"><rect transform="translate(300, 360) rotate(90)" width="60" height="120" fill="none"/><path transform="translate(300, 360) rotate(90)" fill="#d6d3d1" d="M48.0004 120.462H52.0004L52.0004 0.461672L48.0004 0.461672L48.0004 120.462Z"/><path transform="translate(300, 360) rotate(90)" fill="#d6d3d1" d="M38.0004 0.461671L38.0004 120.462H42.0004L42.0004 0.461671L38.0004 0.461671Z"/><path transform="translate(300, 360) rotate(90)" fill="#d6d3d1" d="M28.0004 0.461671L32.0004 0.461671L32.0004 120.462H28.0004L28.0004 0.461671Z"/><path transform="translate(300, 360) rotate(90)" fill="#d6d3d1" d="M18.0004 0.46167L18.0004 120.462H22.0004L22.0004 0.461671L18.0004 0.46167Z"/><path transform="translate(300, 360) rotate(90)" fill="#d6d3d1" d="M8.00037 0.46167L8.00037 120.462H12.0004L12.0004 0.46167L8.00037 0.46167Z"/></g><g name="doubleStripes" mask="url(#mask)"><rect transform="translate(360, 60) rotate(90)" width="60" height="120" fill="none"/><path transform="translate(360, 60) rotate(90)" fill="#f59e0b" d="M48.0004 120.462H52.0004L52.0004 0.461672L48.0004 0.461672L48.0004 120.462Z"/><path transform="translate(360, 60) rotate(90)" fill="#f59e0b" d="M38.0004 0.461671L38.0004 120.462H42.0004L42.0004 0.461671L38.0004 0.461671Z"/><path transform="translate(360, 60) rotate(90)" fill="#f59e0b" d="M28.0004 0.461671L32.0004 0.461671L32.0004 120.462H28.0004L28.0004 0.461671Z"/><path transform="translate(360, 60) rotate(90)" fill="#f59e0b" d="M18.0004 0.46167L18.0004 120.462H22.0004L22.0004 0.461671L18.0004 0.46167Z"/><path transform="translate(360, 60) rotate(90)" fill="#f59e0b" d="M8.00037 0.46167L8.00037 120.462H12.0004L12.0004 0.46167L8.00037 0.46167Z"/></g><g name="doubleStripes" mask="url(#mask)"><rect transform="translate(360, 120) rotate(90)" width="60" height="120" fill="none"/><path transform="translate(360, 120) rotate(90)" fill="#78716c" d="M48.0004 120.462H52.0004L52.0004 0.461672L48.0004 0.461672L48.0004 120.462Z"/><path transform="translate(360, 120) rotate(90)" fill="#78716c" d="M38.0004 0.461671L38.0004 120.462H42.0004L42.0004 0.461671L38.0004 0.461671Z"/><path transform="translate(360, 120) rotate(90)" fill="#78716c" d="M28.0004 0.461671L32.0004 0.461671L32.0004 120.462H28.0004L28.0004 0.461671Z"/><path transform="translate(360, 120) rotate(90)" fill="#78716c" d="M18.0004 0.46167L18.0004 120.462H22.0004L22.0004 0.461671L18.0004 0.46167Z"/><path transform="translate(360, 120) rotate(90)" fill="#78716c" d="M8.00037 0.46167L8.00037 120.462H12.0004L12.0004 0.46167L8.00037 0.46167Z"/></g><g name="doubleStripes" mask="url(#mask)"><rect transform="translate(360, 240) rotate(90)" width="60" height="120" fill="none"/><path transform="translate(360, 240) rotate(90)" fill="#78716c" d="M48.0004 120.462H52.0004L52.0004 0.461672L48.0004 0.461672L48.0004 120.462Z"/><path transform="translate(360, 240) rotate(90)" fill="#78716c" d="M38.0004 0.461671L38.0004 120.462H42.0004L42.0004 0.461671L38.0004 0.461671Z"/><path transform="translate(360, 240) rotate(90)" fill="#78716c" d="M28.0004 0.461671L32.0004 0.461671L32.0004 120.462H28.0004L28.0004 0.461671Z"/><path transform="translate(360, 240) rotate(90)" fill="#78716c" d="M18.0004 0.46167L18.0004 120.462H22.0004L22.0004 0.461671L18.0004 0.46167Z"/><path transform="translate(360, 240) rotate(90)" fill="#78716c" d="M8.00037 0.46167L8.00037 120.462H12.0004L12.0004 0.46167L8.00037 0.46167Z"/></g><g name="doubleStripes" mask="url(#mask)"><rect transform="translate(360, 300) rotate(0)" width="60" height="120" fill="none"/><path transform="translate(360, 300) rotate(0)" fill="#78716c" d="M48.0004 120.462H52.0004L52.0004 0.461672L48.0004 0.461672L48.0004 120.462Z"/><path transform="translate(360, 300) rotate(0)" fill="#78716c" d="M38.0004 0.461671L38.0004 120.462H42.0004L42.0004 0.461671L38.0004 0.461671Z"/><path transform="translate(360, 300) rotate(0)" fill="#78716c" d="M28.0004 0.461671L32.0004 0.461671L32.0004 120.462H28.0004L28.0004 0.461671Z"/><path transform="translate(360, 300) rotate(0)" fill="#78716c" d="M18.0004 0.46167L18.0004 120.462H22.0004L22.0004 0.461671L18.0004 0.46167Z"/><path transform="translate(360, 300) rotate(0)" fill="#78716c" d="M8.00037 0.46167L8.00037 120.462H12.0004L12.0004 0.46167L8.00037 0.46167Z"/></g><g name="doubleStripes" mask="url(#mask)"><rect transform="translate(420, 60) rotate(0)" width="60" height="120" fill="none"/><path transform="translate(420, 60) rotate(0)" fill="#d6d3d1" d="M48.0004 120.462H52.0004L52.0004 0.461672L48.0004 0.461672L48.0004 120.462Z"/><path transform="translate(420, 60) rotate(0)" fill="#d6d3d1" d="M38.0004 0.461671L38.0004 120.462H42.0004L42.0004 0.461671L38.0004 0.461671Z"/><path transform="translate(420, 60) rotate(0)" fill="#d6d3d1" d="M28.0004 0.461671L32.0004 0.461671L32.0004 120.462H28.0004L28.0004 0.461671Z"/><path transform="translate(420, 60) rotate(0)" fill="#d6d3d1" d="M18.0004 0.46167L18.0004 120.462H22.0004L22.0004 0.461671L18.0004 0.46167Z"/><path transform="translate(420, 60) rotate(0)" fill="#d6d3d1" d="M8.00037 0.46167L8.00037 120.462H12.0004L12.0004 0.46167L8.00037 0.46167Z"/></g><g name="doubleStripes" mask="url(#mask)"><rect transform="translate(480, 180) rotate(0)" width="60" height="120" fill="none"/><path transform="translate(480, 180) rotate(0)" fill="#f59e0b" d="M48.0004 120.462H52.0004L52.0004 0.461672L48.0004 0.461672L48.0004 120.462Z"/><path transform="translate(480, 180) rotate(0)" fill="#f59e0b" d="M38.0004 0.461671L38.0004 120.462H42.0004L42.0004 0.461671L38.0004 0.461671Z"/><path transform="translate(480, 180) rotate(0)" fill="#f59e0b" d="M28.0004 0.461671L32.0004 0.461671L32.0004 120.462H28.0004L28.0004 0.461671Z"/><path transform="translate(480, 180) rotate(0)" fill="#f59e0b" d="M18.0004 0.46167L18.0004 120.462H22.0004L22.0004 0.461671L18.0004 0.46167Z"/><path transform="translate(480, 180) rotate(0)" fill="#f59e0b" d="M8.00037 0.46167L8.00037 120.462H12.0004L12.0004 0.46167L8.00037 0.46167Z"/></g><g name="doubleStripes" mask="url(#mask)"><rect transform="translate(480, 240) rotate(0)" width="60" height="120" fill="none"/><path transform="translate(480, 240) rotate(0)" fill="#d6d3d1" d="M48.0004 120.462H52.0004L52.0004 0.461672L48.0004 0.461672L48.0004 120.462Z"/><path transform="translate(480, 240) rotate(0)" fill="#d6d3d1" d="M38.0004 0.461671L38.0004 120.462H42.0004L42.0004 0.461671L38.0004 0.461671Z"/><path transform="translate(480, 240) rotate(0)" fill="#d6d3d1" d="M28.0004 0.461671L32.0004 0.461671L32.0004 120.462H28.0004L28.0004 0.461671Z"/><path transform="translate(480, 240) rotate(0)" fill="#d6d3d1" d="M18.0004 0.46167L18.0004 120.462H22.0004L22.0004 0.461671L18.0004 0.46167Z"/><path transform="translate(480, 240) rotate(0)" fill="#d6d3d1" d="M8.00037 0.46167L8.00037 120.462H12.0004L12.0004 0.46167L8.00037 0.46167Z"/></g><g name="doubleStripes" mask="url(#mask)"><rect transform="translate(540, 60) rotate(90)" width="60" height="120" fill="none"/><path transform="translate(540, 60) rotate(90)" fill="#f59e0b" d="M48.0004 120.462H52.0004L52.0004 0.461672L48.0004 0.461672L48.0004 120.462Z"/><path transform="translate(540, 60) rotate(90)" fill="#f59e0b" d="M38.0004 0.461671L38.0004 120.462H42.0004L42.0004 0.461671L38.0004 0.461671Z"/><path transform="translate(540, 60) rotate(90)" fill="#f59e0b" d="M28.0004 0.461671L32.0004 0.461671L32.0004 120.462H28.0004L28.0004 0.461671Z"/><path transform="translate(540, 60) rotate(90)" fill="#f59e0b" d="M18.0004 0.46167L18.0004 120.462H22.0004L22.0004 0.461671L18.0004 0.46167Z"/><path transform="translate(540, 60) rotate(90)" fill="#f59e0b" d="M8.00037 0.46167L8.00037 120.462H12.0004L12.0004 0.46167L8.00037 0.46167Z"/></g><g name="doubleStripes" mask="url(#mask)"><rect transform="translate(540, 360) rotate(90)" width="60" height="120" fill="none"/><path transform="translate(540, 360) rotate(90)" fill="#f59e0b" d="M48.0004 120.462H52.0004L52.0004 0.461672L48.0004 0.461672L48.0004 120.462Z"/><path transform="translate(540, 360) rotate(90)" fill="#f59e0b" d="M38.0004 0.461671L38.0004 120.462H42.0004L42.0004 0.461671L38.0004 0.461671Z"/><path transform="translate(540, 360) rotate(90)" fill="#f59e0b" d="M28.0004 0.461671L32.0004 0.461671L32.0004 120.462H28.0004L28.0004 0.461671Z"/><path transform="translate(540, 360) rotate(90)" fill="#f59e0b" d="M18.0004 0.46167L18.0004 120.462H22.0004L22.0004 0.461671L18.0004 0.46167Z"/><path transform="translate(540, 360) rotate(90)" fill="#f59e0b" d="M8.00037 0.46167L8.00037 120.462H12.0004L12.0004 0.46167L8.00037 0.46167Z"/></g><g name="doubleStripes" mask="url(#mask)"><rect transform="translate(600, 60) rotate(0)" width="60" height="120" fill="none"/><path transform="translate(600, 60) rotate(0)" fill="#f59e0b" d="M48.0004 120.462H52.0004L52.0004 0.461672L48.0004 0.461672L48.0004 120.462Z"/><path transform="translate(600, 60) rotate(0)" fill="#f59e0b" d="M38.0004 0.461671L38.0004 120.462H42.0004L42.0004 0.461671L38.0004 0.461671Z"/><path transform="translate(600, 60) rotate(0)" fill="#f59e0b" d="M28.0004 0.461671L32.0004 0.461671L32.0004 120.462H28.0004L28.0004 0.461671Z"/><path transform="translate(600, 60) rotate(0)" fill="#f59e0b" d="M18.0004 0.46167L18.0004 120.462H22.0004L22.0004 0.461671L18.0004 0.46167Z"/><path transform="translate(600, 60) rotate(0)" fill="#f59e0b" d="M8.00037 0.46167L8.00037 120.462H12.0004L12.0004 0.46167L8.00037 0.46167Z"/></g><g name="doubleStripes" mask="url(#mask)"><rect transform="translate(600, 120) rotate(0)" width="60" height="120" fill="none"/><path transform="translate(600, 120) rotate(0)" fill="#d6d3d1" d="M48.0004 120.462H52.0004L52.0004 0.461672L48.0004 0.461672L48.0004 120.462Z"/><path transform="translate(600, 120) rotate(0)" fill="#d6d3d1" d="M38.0004 0.461671L38.0004 120.462H42.0004L42.0004 0.461671L38.0004 0.461671Z"/><path transform="translate(600, 120) rotate(0)" fill="#d6d3d1" d="M28.0004 0.461671L32.0004 0.461671L32.0004 120.462H28.0004L28.0004 0.461671Z"/><path transform="translate(600, 120) rotate(0)" fill="#d6d3d1" d="M18.0004 0.46167L18.0004 120.462H22.0004L22.0004 0.461671L18.0004 0.46167Z"/><path transform="translate(600, 120) rotate(0)" fill="#d6d3d1" d="M8.00037 0.46167L8.00037 120.462H12.0004L12.0004 0.46167L8.00037 0.46167Z"/></g></svg>